<?xml version="1.0" encoding="UTF-8"?>
<svg id="Layer_2" data-name="Layer 2" xmlns="http://www.w3.org/2000/svg" viewBox="0 0 324.47 154.67">
  <defs>
    <style>
      .cls-1 {
        fill: #f2a900;
      }

      .cls-2 {
        fill: #4a7729;
      }
    </style>
  </defs>
  <g id="Logo">
    <g>
      <g>
        <path class="cls-2" d="m163.5,57.6c1.96,0,3.64.23,5.04.7,1.4.46,2.56,1.1,3.47,1.92.91.81,1.58,1.77,2.01,2.88.43,1.11.65,2.3.65,3.59,0,1.39-.22,2.66-.67,3.81-.45,1.16-1.13,2.15-2.04,2.97-.92.83-2.08,1.47-3.48,1.94-1.4.46-3.07.7-4.99.7h-3.36v9.29h-6.45v-27.78h9.8Zm0,13.64c1.68,0,2.89-.4,3.62-1.2.74-.8,1.11-1.92,1.11-3.36,0-.64-.1-1.21-.29-1.74-.19-.52-.48-.97-.87-1.34-.39-.37-.88-.66-1.47-.87-.59-.2-1.29-.31-2.11-.31h-3.36v8.81h3.36Z"/>
        <path class="cls-2" d="m185.6,65.3c1.5,0,2.87.24,4.1.71,1.23.47,2.29,1.14,3.18,2.02.88.88,1.57,1.94,2.06,3.19.49,1.25.73,2.66.73,4.22s-.24,3-.73,4.26c-.49,1.27-1.18,2.34-2.06,3.22-.88.88-1.94,1.56-3.18,2.04-1.23.48-2.6.71-4.1.71s-2.89-.24-4.13-.71c-1.24-.48-2.31-1.16-3.2-2.04-.9-.88-1.59-1.96-2.08-3.22-.49-1.26-.73-2.69-.73-4.26s.24-2.97.73-4.22c.49-1.25,1.18-2.32,2.08-3.19.9-.88,1.96-1.55,3.2-2.02,1.24-.47,2.62-.71,4.13-.71Zm0,16c1.36,0,2.36-.48,3-1.44.64-.96.96-2.42.96-4.38s-.32-3.41-.96-4.37c-.64-.95-1.64-1.43-3-1.43s-2.42.48-3.07,1.43c-.65.95-.97,2.41-.97,4.37s.32,3.42.97,4.38c.65.96,1.67,1.44,3.07,1.44Z"/>
        <path class="cls-2" d="m204.18,68.66c.61-1.07,1.31-1.91,2.11-2.52.79-.61,1.71-.92,2.74-.92.89,0,1.61.21,2.17.63l-.38,4.35c-.06.28-.17.47-.31.57-.15.1-.35.15-.6.15-.1,0-.24,0-.4-.02s-.34-.03-.51-.05c-.18-.02-.36-.04-.54-.06-.18-.02-.35-.03-.51-.03-.86,0-1.55.23-2.07.69-.52.46-.95,1.09-1.31,1.91v12.01h-5.91v-19.78h3.51c.29,0,.54.03.73.08.2.05.36.13.5.24.13.11.24.25.31.43.07.18.13.39.18.65l.31,1.66Z"/>
        <path class="cls-2" d="m220.27,85.69c-.94,0-1.77-.14-2.49-.41-.72-.27-1.32-.66-1.81-1.16s-.86-1.11-1.12-1.82c-.25-.71-.38-1.51-.38-2.38v-10.22h-1.68c-.31,0-.57-.1-.78-.3-.22-.2-.32-.49-.32-.87v-2.31l3.15-.61,1.16-4.82c.15-.61.58-.92,1.3-.92h3.09v5.78h4.9v4.04h-4.9v9.82c0,.46.11.84.33,1.13.22.3.54.45.96.45.22,0,.4-.02.54-.07s.27-.1.38-.15c.11-.06.21-.11.31-.15.1-.04.21-.07.33-.07.18,0,.32.04.43.12.11.08.22.21.33.39l1.79,2.8c-.76.57-1.62,1-2.57,1.29-.95.29-1.94.43-2.96.43Z"/>
      </g>
      <g>
        <path class="cls-2" d="m258.68,57.62v27.78h-6.48v-11.75h-11.29v11.75h-6.48v-27.78h6.48v11.61h11.29v-11.61h6.48Z"/>
        <path class="cls-2" d="m271.9,65.32c1.5,0,2.87.24,4.1.71,1.23.47,2.29,1.14,3.18,2.02.88.88,1.57,1.94,2.06,3.19.49,1.25.73,2.66.73,4.22s-.24,3-.73,4.26c-.49,1.27-1.18,2.34-2.06,3.22-.88.88-1.94,1.56-3.18,2.04-1.23.48-2.6.71-4.1.71s-2.89-.24-4.13-.71c-1.24-.48-2.31-1.16-3.2-2.04-.9-.88-1.59-1.96-2.08-3.22-.49-1.26-.73-2.69-.73-4.26s.24-2.97.73-4.22c.49-1.25,1.18-2.32,2.08-3.19.9-.88,1.96-1.55,3.2-2.02,1.24-.47,2.62-.71,4.13-.71Zm0,16c1.36,0,2.36-.48,3-1.44.64-.96.96-2.42.96-4.38s-.32-3.41-.96-4.37c-.64-.95-1.64-1.43-3-1.43s-2.42.48-3.07,1.43c-.65.95-.97,2.41-.97,4.37s.32,3.42.97,4.38c.65.96,1.67,1.44,3.07,1.44Z"/>
        <path class="cls-2" d="m290.49,68.07c.78-.83,1.66-1.5,2.64-2.03.99-.53,2.16-.79,3.52-.79,1.03,0,1.98.23,2.86.69.88.46,1.63,1.12,2.27,1.98.64.86,1.13,1.92,1.5,3.18.36,1.25.54,2.67.54,4.26,0,1.49-.21,2.86-.62,4.12-.41,1.26-.99,2.35-1.74,3.28-.74.93-1.63,1.65-2.67,2.17-1.04.52-2.18.78-3.44.78-1.03,0-1.89-.15-2.59-.44-.7-.29-1.33-.69-1.91-1.18v7.59h-5.91v-26.05h3.66c.74,0,1.22.33,1.45.99l.44,1.45Zm.36,11.96c.44.48.93.83,1.45,1.03.52.2,1.07.31,1.64.31s1.05-.11,1.51-.32c.46-.22.85-.56,1.19-1.04s.6-1.1.79-1.86c.19-.76.29-1.69.29-2.78s-.08-1.92-.23-2.63c-.15-.71-.37-1.29-.64-1.73-.27-.44-.6-.75-.98-.94-.38-.19-.81-.29-1.28-.29-.86,0-1.58.16-2.14.48-.56.32-1.09.78-1.6,1.39v8.39Z"/>
        <path class="cls-2" d="m311.73,76.57c.19,1.65.69,2.85,1.51,3.59.81.74,1.86,1.12,3.15,1.12.69,0,1.28-.08,1.77-.25s.94-.35,1.33-.55.74-.39,1.07-.55c.32-.17.66-.25,1.02-.25.47,0,.83.17,1.07.52l1.72,2.12c-.61.7-1.27,1.27-1.97,1.71s-1.43.78-2.17,1.03c-.74.25-1.49.42-2.23.52-.74.1-1.45.14-2.13.14-1.39,0-2.69-.23-3.9-.68-1.21-.45-2.28-1.12-3.18-2.01-.91-.89-1.63-2-2.16-3.32-.53-1.32-.79-2.86-.79-4.62,0-1.32.23-2.57.68-3.76s1.1-2.22,1.95-3.11c.85-.89,1.87-1.6,3.07-2.12,1.2-.52,2.56-.78,4.07-.78,1.31,0,2.51.2,3.59.61,1.09.41,2.02,1,2.8,1.77.78.78,1.39,1.73,1.83,2.85.44,1.13.66,2.4.66,3.82,0,.45-.02.81-.06,1.09-.04.28-.11.5-.21.67-.1.17-.24.28-.41.34s-.39.1-.66.1h-11.4Zm7.44-3.43c0-.47-.06-.93-.18-1.37-.12-.45-.32-.84-.59-1.19s-.63-.63-1.08-.85c-.45-.22-.99-.32-1.62-.32-1.12,0-2,.32-2.63.96-.64.64-1.06,1.57-1.26,2.77h7.36Z"/>
      </g>
      <g>
        <g>
          <path class="cls-2" d="m87.1,139.86s0,.01-.01.03v.03s-.03-.06-.04-.08h.04s.01.03.01.03Z"/>
          <path class="cls-2" d="m57.02,139.61c-.11,0-.22-.02-.33-.06.14-.19.25-.13.33.06Z"/>
          <path class="cls-2" d="m87.13,139.98s-.03-.04-.04-.07c-.01-.03-.03-.06-.04-.08h.03s.01.04.01.06c.01.03.03.07.04.1Z"/>
        </g>
        <rect class="cls-2" x="0" y="146.88" width="187.87" height="6.82"/>
        <g>
          <path class="cls-2" d="m61.27,93.81c-3.81-4.67-7.04-8.02-8.49-9.48-2.67-2.71-5.12-4.96-7.14-6.72,0,0,0,0,0,0-2.27-2.12-4.22-3.89-5.67-5.2.37-.38.75-.75,1.12-1.13,14.24,8.15,24.33,20.57,33.58,35.26,1.12-10.68.88-19.94-2.16-29.07-3.83-11.53-10.52-20.58-21.8-25.86-15.21-7.13-30.44-14.2-42.32-26.62-1.64-1.71-2.8-1.27-3.32,1.06-.59,2.63-1.29,5.25-1.92,7.86C-.05,46.97-1.59,59.87,2.34,73.27c2.86,9.7,8.6,16.66,16.28,22.39,7.44,5.54,15.73,9.19,24.38,11.95l-22.76,42.39h8.03l21.67-40.35c2.05.55,4.13,1.07,6.21,1.57,2.31.55,4.37,1.41,6.15,2.86,1.05.85,2.1,1.72,3.12,2.6,2.7,2.33,4.94,5.15,6.65,8.28,4.44,8.12,8.87,16.21,11.72,25.04h9.75c-2.89-6.47-10.79-23.77-20.37-39.25-5.23-8.45-9.38-13.82-11.92-16.93Z"/>
          <path class="cls-1" d="m123.57,102.61c-.48,0-.95.02-1.41.08,0,0,0,0,0,0,2.43-6.62,3.76-13.77,3.76-21.22s-1.33-14.61-3.76-21.22c.47.05.94.08,1.42.08,7.21,0,13.06-5.86,13.06-13.06s-5.85-13.06-13.06-13.06c-5.34,0-9.93,3.23-11.95,7.83-9.17-10.98-22.09-18.71-36.79-21.24,1.6-2.17,2.56-4.84,2.56-7.74,0-7.2-5.86-13.06-13.06-13.06s-13.06,5.86-13.06,13.06c0,2.9.96,5.57,2.56,7.74-10.72,1.84-20.48,6.46-28.54,13.07,2.27,1.38,4.57,2.7,6.91,3.97,8.06-5.94,17.83-9.71,28.44-10.42v25.26c2.78,2.07,5.23,4.41,7.37,7V27.4c17.2,1.16,32.21,10.34,41.3,23.84l-34.31,19.81c.89,1.97,1.69,4.01,2.39,6.13.09.28.18.57.27.85l35.34-20.4c3.53,7.2,5.52,15.29,5.52,23.84s-1.99,16.65-5.52,23.85l-33.42-19.29c.5,2.96.79,5.96.9,9.03l28.83,16.65c-5.48,8.14-13.11,14.7-22.07,18.89,1.2,2.23,2.34,4.42,3.43,6.55,8.11-3.85,15.24-9.41,20.93-16.23,2.02,4.6,6.62,7.82,11.96,7.82,7.2,0,13.06-5.86,13.06-13.06s-5.86-13.06-13.06-13.06ZM68.02,17.37c-.11.09-.22.18-.33.26-.03.02-.05.04-.08.06-.1.07-.21.14-.32.21-.04.03-.08.05-.12.08-.1.06-.2.11-.3.16-.06.03-.11.06-.17.08-.09.04-.19.09-.29.12-.07.03-.14.05-.21.08-.09.03-.18.06-.27.09-.09.03-.17.05-.26.07-.08.02-.16.04-.25.06-.11.02-.22.04-.33.05-.07,0-.13.02-.2.03-.18.02-.36.03-.55.03s-.37-.01-.55-.03c-.07,0-.13-.02-.2-.03-.11-.01-.22-.03-.33-.05-.08-.02-.16-.04-.24-.06-.09-.02-.18-.04-.27-.07-.09-.03-.18-.06-.27-.09-.07-.03-.15-.05-.22-.08-.09-.04-.19-.08-.28-.12-.06-.03-.12-.06-.18-.09-.1-.05-.2-.1-.29-.16-.05-.03-.09-.05-.13-.08-.1-.06-.21-.13-.31-.2-.03-.02-.06-.04-.09-.06-.11-.08-.22-.16-.32-.25-1.22-1.04-2-2.59-2-4.32,0-3.13,2.55-5.69,5.69-5.69s5.69,2.55,5.69,5.69c0,1.73-.78,3.27-2,4.32Zm49.87,29.89c0-.18.01-.35.03-.53.02-.17.04-.34.07-.51.49-2.64,2.8-4.65,5.58-4.65,3.14,0,5.69,2.55,5.69,5.69s-2.55,5.69-5.69,5.69c-.66,0-1.3-.13-1.89-.34-.63-.23-1.21-.56-1.72-.98-.02-.02-.04-.04-.06-.06-.21-.18-.4-.37-.58-.57-.05-.05-.09-.1-.14-.16-.19-.23-.37-.48-.53-.75-.48-.84-.76-1.81-.76-2.84Zm5.68,74.09c-2.78,0-5.1-2.01-5.59-4.65-.03-.17-.05-.33-.07-.5-.02-.17-.03-.35-.03-.53,0-1.03.28-2.01.77-2.84.15-.27.33-.51.52-.75.04-.05.09-.11.14-.16.18-.2.37-.4.58-.57.02-.02.04-.04.07-.06.51-.42,1.09-.75,1.72-.97.59-.21,1.23-.34,1.89-.34,3.13,0,5.69,2.55,5.69,5.69s-2.55,5.69-5.69,5.69Z"/>
        </g>
      </g>
      <g>
        <path class="cls-2" d="m214.6,110.44v15.17h19.21v7.62h-19.21v20.87h-9.57v-51.25h32.32v7.58h-22.75Z"/>
        <path class="cls-2" d="m241.32,122.81c4.18-3.83,9.21-5.74,15.1-5.74,2.13,0,4.03.35,5.7,1.05,1.68.7,3.1,1.67,4.25,2.91,1.16,1.24,2.04,2.72,2.64,4.45s.9,3.61.9,5.67v22.97h-3.97c-.83,0-1.47-.12-1.91-.37-.45-.25-.8-.75-1.06-1.51l-.78-2.62c-.92.83-1.82,1.55-2.69,2.18-.87.63-1.78,1.15-2.73,1.58s-1.96.75-3.03.97c-1.07.22-2.26.34-3.56.34-1.54,0-2.95-.21-4.25-.62s-2.42-1.03-3.37-1.86c-.94-.83-1.68-1.85-2.2-3.08s-.78-2.66-.78-4.29c0-.92.15-1.84.46-2.75.31-.91.81-1.78,1.51-2.6.7-.83,1.6-1.61,2.71-2.34,1.11-.73,2.47-1.37,4.09-1.91s3.5-.99,5.65-1.33c2.15-.34,4.61-.55,7.37-.62v-2.13c0-2.43-.52-4.23-1.56-5.4s-2.54-1.75-4.5-1.75c-1.42,0-2.59.17-3.53.5-.93.33-1.75.7-2.46,1.12s-1.35.78-1.93,1.12c-.58.33-1.22.5-1.93.5-.61,0-1.13-.16-1.56-.48-.43-.32-.77-.69-1.03-1.12l-1.56-2.8Zm20.06,15.77c-2.53.12-4.66.34-6.38.66-1.72.32-3.11.73-4.14,1.22-1.04.5-1.79,1.07-2.23,1.74-.45.66-.67,1.38-.67,2.16,0,1.54.46,2.63,1.36,3.29.91.66,2.1.99,3.56.99,1.8,0,3.35-.32,4.66-.97,1.31-.65,2.59-1.64,3.85-2.96v-6.13Z"/>
        <path class="cls-2" d="m291.61,107.14c0,.76-.15,1.46-.46,2.13-.31.66-.71,1.24-1.22,1.74-.51.5-1.1.89-1.79,1.19-.69.3-1.42.44-2.2.44s-1.47-.15-2.14-.44c-.67-.3-1.26-.69-1.75-1.19-.5-.5-.89-1.07-1.19-1.74s-.44-1.37-.44-2.13.15-1.51.44-2.2c.3-.69.69-1.28,1.19-1.77.5-.5,1.08-.89,1.75-1.19.67-.3,1.39-.44,2.14-.44s1.51.15,2.2.44c.69.3,1.28.69,1.79,1.19.51.5.92,1.09,1.22,1.77.31.69.46,1.42.46,2.2Zm-1.21,10.6v36.36h-8.79v-36.36h8.79Z"/>
        <path class="cls-2" d="m310.78,124.05c1.13-2.17,2.48-3.88,4.04-5.12,1.56-1.24,3.4-1.86,5.53-1.86,1.68,0,3.02.37,4.04,1.1l-.57,6.56c-.12.42-.29.73-.51.9-.23.18-.53.27-.9.27-.35,0-.88-.06-1.58-.18-.7-.12-1.38-.18-2.04-.18-.97,0-1.83.14-2.59.43-.76.28-1.44.69-2.04,1.22s-1.13,1.18-1.59,1.93-.89,1.62-1.29,2.59v22.4h-8.75v-36.36h5.14c.9,0,1.52.16,1.88.48.35.32.59.89.71,1.72l.53,4.11Z"/>
      </g>
    </g>
  </g>
</svg>